<svg width="14" height="11" viewBox="0 0 14 11" fill="none" xmlns="http://www.w3.org/2000/svg">
<path d="M13.5898 5.71484L8.99609 10.3086C8.86849 10.4362 8.71354 10.5 8.53125 10.5C8.34896 10.5 8.19401 10.4362 8.06641 10.3086C7.9388 10.181 7.875 10.026 7.875 9.84375V7.21875H4.15625C3.97396 7.21875 3.81901 7.15495 3.69141 7.02734C3.5638 6.89974 3.5 6.74479 3.5 6.5625V3.9375C3.5 3.75521 3.5638 3.60026 3.69141 3.47266C3.81901 3.34505 3.97396 3.28125 4.15625 3.28125H7.875V0.65625C7.875 0.473958 7.9388 0.31901 8.06641 0.191406C8.19401 0.0638021 8.34896 0 8.53125 0C8.71354 0 8.86849 0.0638021 8.99609 0.191406L13.5898 4.78516C13.7174 4.91276 13.7812 5.06771 13.7812 5.25C13.7812 5.43229 13.7174 5.58724 13.5898 5.71484ZM5.25 10.1719V9.07812C5.25 8.98698 5.21354 8.91406 5.14062 8.85938C5.08594 8.78646 5.01302 8.75 4.92188 8.75H2.625C2.38802 8.75 2.17839 8.66797 1.99609 8.50391C1.83203 8.32161 1.75 8.11198 1.75 7.875V2.625C1.75 2.38802 1.83203 2.1875 1.99609 2.02344C2.17839 1.84115 2.38802 1.75 2.625 1.75H4.92188C5.01302 1.75 5.08594 1.72266 5.14062 1.66797C5.21354 1.59505 5.25 1.51302 5.25 1.42188V0.328125C5.25 0.236979 5.21354 0.164062 5.14062 0.109375C5.08594 0.0364583 5.01302 0 4.92188 0H2.625C1.89583 0 1.27604 0.255208 0.765625 0.765625C0.255208 1.27604 0 1.89583 0 2.625V7.875C0 8.60417 0.255208 9.22396 0.765625 9.73438C1.27604 10.2448 1.89583 10.5 2.625 10.5H4.92188C5.01302 10.5 5.08594 10.4727 5.14062 10.418C5.21354 10.3451 5.25 10.263 5.25 10.1719Z" fill="url(#paint0_linear_0_1468)"/>
<defs>
<linearGradient id="paint0_linear_0_1468" x1="0" y1="-2.5" x2="0" y2="13.5" gradientUnits="userSpaceOnUse">
<stop stop-color="#FF8F8F"/>
<stop offset="1" stop-color="#FFC1C1"/>
</linearGradient>
</defs>
</svg>
