<svg width="14" height="14" viewBox="0 0 14 14" fill="none" xmlns="http://www.w3.org/2000/svg">
<path d="M14 4.8125C14 5.6875 13.7812 6.4987 13.3438 7.24609C12.9245 7.97526 12.3411 8.55859 11.5938 8.99609C10.8646 9.41536 10.0625 9.625 9.1875 9.625C8.8776 9.625 8.57682 9.59766 8.28516 9.54297L7.62891 10.2812C7.5013 10.4271 7.33724 10.5 7.13672 10.5H6.125V11.5938C6.125 11.776 6.0612 11.931 5.93359 12.0586C5.80599 12.1862 5.65104 12.25 5.46875 12.25H4.375V13.3438C4.375 13.526 4.3112 13.681 4.18359 13.8086C4.05599 13.9362 3.90104 14 3.71875 14H0.65625C0.473958 14 0.31901 13.9362 0.191406 13.8086C0.0638021 13.681 0 13.526 0 13.3438V11.2109C0 11.0286 0.0638021 10.8737 0.191406 10.7461L4.62109 6.31641C4.45703 5.82422 4.375 5.32292 4.375 4.8125C4.375 3.9375 4.58464 3.13542 5.00391 2.40625C5.44141 1.65885 6.02474 1.07552 6.75391 0.65625C7.5013 0.21875 8.3125 0 9.1875 0C10.0625 0 10.8646 0.21875 11.5938 0.65625C12.3411 1.07552 12.9245 1.65885 13.3438 2.40625C13.7812 3.13542 14 3.9375 14 4.8125ZM9.1875 3.5C9.1875 3.86458 9.3151 4.17448 9.57031 4.42969C9.82552 4.6849 10.1354 4.8125 10.5 4.8125C10.8646 4.8125 11.1745 4.6849 11.4297 4.42969C11.6849 4.17448 11.8125 3.86458 11.8125 3.5C11.8125 3.13542 11.6849 2.82552 11.4297 2.57031C11.1745 2.3151 10.8646 2.1875 10.5 2.1875C10.1354 2.1875 9.82552 2.3151 9.57031 2.57031C9.3151 2.82552 9.1875 3.13542 9.1875 3.5Z" fill="url(#paint0_linear_0_1476)"/>
<defs>
<linearGradient id="paint0_linear_0_1476" x1="0" y1="-0.75" x2="0" y2="15.25" gradientUnits="userSpaceOnUse">
<stop stop-color="#F97FD9"/>
<stop offset="1" stop-color="#FFC1E6"/>
</linearGradient>
</defs>
</svg>
