<svg width="18" height="14" viewBox="0 0 18 14" fill="none" xmlns="http://www.w3.org/2000/svg">
<path d="M16.707 10.1992C16.7617 9.81641 16.7526 9.43359 16.6797 9.05078L17.3906 8.64062C17.4818 8.58594 17.5182 8.50391 17.5 8.39453C17.3177 7.8112 17.0078 7.29167 16.5703 6.83594C16.4974 6.76302 16.4154 6.75391 16.3242 6.80859L15.6406 7.19141C15.3307 6.9362 14.9935 6.74479 14.6289 6.61719V5.79688C14.6289 5.6875 14.5742 5.6237 14.4648 5.60547C13.8633 5.47786 13.2617 5.47786 12.6602 5.60547C12.5508 5.6237 12.4961 5.6875 12.4961 5.79688V6.61719C12.1315 6.74479 11.7943 6.9362 11.4844 7.19141L10.7734 6.78125C10.6823 6.74479 10.6003 6.76302 10.5273 6.83594C10.1081 7.29167 9.80729 7.8112 9.625 8.39453C9.60677 8.50391 9.64323 8.58594 9.73438 8.64062L10.418 9.05078C10.3451 9.43359 10.3451 9.81641 10.418 10.1992L9.73438 10.6094C9.625 10.6641 9.58854 10.7461 9.625 10.8555C9.80729 11.4388 10.1081 11.9583 10.5273 12.4141C10.6003 12.487 10.6823 12.4961 10.7734 12.4414L11.4844 12.0586C11.7943 12.3138 12.1315 12.5052 12.4961 12.6328V13.4531C12.4961 13.5625 12.5508 13.6263 12.6602 13.6445C13.2617 13.7721 13.8633 13.7721 14.4648 13.6445C14.5742 13.6263 14.6289 13.5625 14.6289 13.4531V12.6328C14.9935 12.5052 15.3307 12.3138 15.6406 12.0586L16.3242 12.4414C16.4154 12.4961 16.4974 12.487 16.5703 12.4141C17.0078 11.9583 17.3177 11.4388 17.5 10.8555C17.5182 10.7461 17.4818 10.6641 17.3906 10.6094L16.707 10.1992ZM13.5625 10.9375C13.1979 10.9375 12.888 10.8099 12.6328 10.5547C12.3776 10.2995 12.25 9.98958 12.25 9.625C12.25 9.26042 12.3776 8.95052 12.6328 8.69531C12.888 8.4401 13.1979 8.3125 13.5625 8.3125C13.9271 8.29427 14.237 8.42188 14.4922 8.69531C14.7656 8.95052 14.9023 9.26042 14.9023 9.625C14.9023 9.98958 14.7656 10.2995 14.4922 10.5547C14.237 10.8099 13.9271 10.9375 13.5625 10.9375ZM6.125 7C6.76302 7 7.34635 6.84505 7.875 6.53516C8.42188 6.22526 8.85026 5.80599 9.16016 5.27734C9.47005 4.73047 9.625 4.13802 9.625 3.5C9.625 2.86198 9.47005 2.27865 9.16016 1.75C8.85026 1.20312 8.42188 0.77474 7.875 0.464844C7.34635 0.154948 6.76302 0 6.125 0C5.48698 0 4.89453 0.154948 4.34766 0.464844C3.81901 0.77474 3.39974 1.20312 3.08984 1.75C2.77995 2.27865 2.625 2.86198 2.625 3.5C2.625 4.13802 2.77995 4.73047 3.08984 5.27734C3.39974 5.80599 3.81901 6.22526 4.34766 6.53516C4.89453 6.84505 5.48698 7 6.125 7ZM11.6211 13.1797C11.5846 13.1797 11.5391 13.1523 11.4844 13.0977H11.4297L11.2383 13.207C11.056 13.3164 10.8737 13.3711 10.6914 13.3711C10.3815 13.3711 10.1172 13.2526 9.89844 13.0156C9.38802 12.4505 9.02344 11.8125 8.80469 11.1016C8.73177 10.8646 8.74089 10.6367 8.83203 10.418C8.92318 10.181 9.07812 9.9987 9.29688 9.87109L9.51562 9.73438V9.51562L9.29688 9.40625C9.07812 9.27865 8.92318 9.09635 8.83203 8.85938C8.74089 8.6224 8.73177 8.38542 8.80469 8.14844L8.88672 7.90234L8.58594 7.875H8.12109C7.48307 8.16667 6.81771 8.3125 6.125 8.3125C5.43229 8.3125 4.76693 8.16667 4.12891 7.875H3.66406C3.00781 7.875 2.39714 8.03906 1.83203 8.36719C1.26693 8.69531 0.820312 9.14193 0.492188 9.70703C0.164062 10.2721 0 10.8828 0 11.5391V12.6875C0 13.0521 0.127604 13.362 0.382812 13.6172C0.638021 13.8724 0.947917 14 1.3125 14H10.9375C11.2109 14 11.457 13.918 11.6758 13.7539C11.6393 13.6445 11.6211 13.5443 11.6211 13.4531V13.1797Z" fill="url(#paint0_linear_0_1480)"/>
<defs>
<linearGradient id="paint0_linear_0_1480" x1="0" y1="-0.75" x2="0" y2="15.25" gradientUnits="userSpaceOnUse">
<stop stop-color="#4E96FF"/>
<stop offset="1" stop-color="#80C9FC"/>
</linearGradient>
</defs>
</svg>
