<svg width="94" height="15" viewBox="0 0 94 15" fill="none" xmlns="http://www.w3.org/2000/svg">
<path d="M5.58 14.54C4.84666 14.54 4.13333 14.4733 3.44 14.34C2.76 14.22 2.12666 14.0467 1.54 13.82C0.953329 13.58 0.439995 13.3 -4.81308e-06 12.98L0.899995 10.54C1.32666 10.8333 1.78666 11.0867 2.28 11.3C2.77333 11.5133 3.3 11.68 3.86 11.8C4.42 11.9067 4.99333 11.96 5.58 11.96C6.55333 11.96 7.24666 11.8133 7.66 11.52C8.07333 11.2133 8.28 10.8333 8.28 10.38C8.28 10.1267 8.21333 9.90667 8.08 9.72C7.96 9.53333 7.75333 9.37333 7.46 9.24C7.18 9.09333 6.79333 8.97333 6.3 8.88L4.04 8.4C2.76 8.13333 1.80666 7.68 1.18 7.04C0.566662 6.38667 0.259995 5.53333 0.259995 4.48C0.259995 3.57333 0.499995 2.78667 0.979995 2.12C1.47333 1.45333 2.14666 0.933333 3 0.56C3.86666 0.186666 4.86 -2.38419e-07 5.98 -2.38419e-07C6.63333 -2.38419e-07 7.26 0.0666664 7.86 0.2C8.46 0.32 9.01333 0.5 9.52 0.74C10.0267 0.98 10.4667 1.26667 10.84 1.6L9.94 3.88C9.40666 3.45333 8.80666 3.13333 8.14 2.92C7.47333 2.69333 6.74666 2.58 5.96 2.58C5.4 2.58 4.92 2.65333 4.52 2.8C4.13333 2.94667 3.83333 3.15333 3.62 3.42C3.42 3.68667 3.32 3.99333 3.32 4.34C3.32 4.72667 3.46 5.04 3.74 5.28C4.02 5.52 4.50666 5.71333 5.2 5.86L7.46 6.34C8.76666 6.62 9.74 7.07333 10.38 7.7C11.02 8.31333 11.34 9.12667 11.34 10.14C11.34 11.02 11.1 11.7933 10.62 12.46C10.1533 13.1133 9.48666 13.6267 8.62 14C7.76666 14.36 6.75333 14.54 5.58 14.54ZM17.0191 14.32L11.9991 0.219999H15.1791L18.8391 11.1H17.9791L21.8391 0.219999H24.0791L27.7791 11.1H27.0391L30.7591 0.219999H33.7591L28.6991 14.32H26.1791L22.6391 4.3H23.1191L19.5391 14.32H17.0191ZM35.5214 14.32V0.219999H38.1014L43.2014 9.5H42.5214L47.6014 0.219999H50.1414V14.32H47.3214V4.96H47.7614L43.6814 12.2H41.9414L37.8414 4.94H38.3214V14.32H35.5214Z" fill="#4880FF"/>
<path d="M56.3609 14.32V2.78H51.7009V0.219999H64.1209V2.78H59.4609V14.32H56.3609ZM68.8956 14.54C67.7356 14.54 66.7356 14.3333 65.8956 13.92C65.069 13.4933 64.429 12.9 63.9756 12.14C63.5356 11.3667 63.3156 10.46 63.3156 9.42C63.3156 8.40667 63.529 7.52 63.9556 6.76C64.3823 5.98667 64.9756 5.38667 65.7356 4.96C66.509 4.52 67.3823 4.3 68.3556 4.3C69.3156 4.3 70.1423 4.50667 70.8356 4.92C71.529 5.32 72.0623 5.89333 72.4356 6.64C72.8223 7.38667 73.0156 8.27333 73.0156 9.3V10.06H65.7956V8.5H70.8356L70.5156 8.78C70.5156 7.96667 70.3356 7.35333 69.9756 6.94C69.629 6.51333 69.129 6.3 68.4756 6.3C67.9823 6.3 67.5623 6.41333 67.2156 6.64C66.869 6.86667 66.6023 7.19333 66.4156 7.62C66.229 8.04667 66.1356 8.56 66.1356 9.16V9.32C66.1356 10 66.2356 10.56 66.4356 11C66.649 11.4267 66.9623 11.7467 67.3756 11.96C67.8023 12.1733 68.329 12.28 68.9556 12.28C69.489 12.28 70.029 12.2 70.5756 12.04C71.1223 11.88 71.6156 11.6333 72.0556 11.3L72.8556 13.32C72.3623 13.6933 71.7556 13.9933 71.0356 14.22C70.329 14.4333 69.6156 14.54 68.8956 14.54ZM79.5522 14.54C78.4855 14.54 77.5522 14.3333 76.7522 13.92C75.9655 13.4933 75.3588 12.8933 74.9322 12.12C74.5055 11.3467 74.2922 10.4333 74.2922 9.38C74.2922 8.32667 74.5055 7.42 74.9322 6.66C75.3588 5.9 75.9655 5.32 76.7522 4.92C77.5522 4.50667 78.4855 4.3 79.5522 4.3C80.1922 4.3 80.8255 4.39333 81.4522 4.58C82.0922 4.76667 82.6122 5.03333 83.0122 5.38L82.1722 7.46C81.8522 7.19333 81.4788 6.98667 81.0522 6.84C80.6255 6.68 80.2255 6.6 79.8522 6.6C79.0655 6.6 78.4522 6.84667 78.0122 7.34C77.5855 7.82 77.3722 8.50667 77.3722 9.4C77.3722 10.28 77.5855 10.9733 78.0122 11.48C78.4522 11.9733 79.0655 12.22 79.8522 12.22C80.2255 12.22 80.6255 12.1467 81.0522 12C81.4788 11.8533 81.8522 11.64 82.1722 11.36L83.0122 13.44C82.6122 13.7733 82.0922 14.04 81.4522 14.24C80.8122 14.44 80.1788 14.54 79.5522 14.54ZM84.323 14.32V0.219999H87.343V6.34H87.063C87.3696 5.68667 87.823 5.18667 88.423 4.84C89.0363 4.48 89.7296 4.3 90.503 4.3C91.2896 4.3 91.9363 4.45333 92.443 4.76C92.9496 5.05333 93.3296 5.50667 93.583 6.12C93.8363 6.72 93.963 7.48667 93.963 8.42V14.32H90.943V8.56C90.943 8.10667 90.883 7.74 90.763 7.46C90.6563 7.16667 90.4896 6.96 90.263 6.84C90.0496 6.70667 89.7763 6.64 89.443 6.64C89.0163 6.64 88.643 6.73333 88.323 6.92C88.0163 7.09333 87.7763 7.34667 87.603 7.68C87.4296 8.01333 87.343 8.4 87.343 8.84V14.32H84.323Z" fill="#202224"/>
</svg>
